<mxfile host="app.diagrams.net" modified="2022-03-15T00:37:02.425Z" agent="5.0 (Linux; Android 9; moto g(6) plus) AppleWebKit/537.36 (KHTML, like Gecko) Chrome/99.0.4844.58 Mobile Safari/537.36" etag="Bp0mkoJjGMqpTv0ZuBZf" version="17.1.2" type="github">
  <diagram id="-1ewdUSAGoZJPy7TG6EE" name="Page-1">
    <mxGraphModel dx="435" dy="741" grid="0" gridSize="10" guides="1" tooltips="1" connect="1" arrows="1" fold="1" page="0" pageScale="1" pageWidth="850" pageHeight="1100" math="0" shadow="0">
      <root>
        <mxCell id="0" />
        <mxCell id="1" parent="0" />
        <mxCell id="hT53Xvhp56gyMF1w9cKe-4" value="" style="rounded=1;whiteSpace=wrap;html=1;hachureGap=4;rotation=0;" vertex="1" parent="1">
          <mxGeometry x="300" y="330" width="400" height="300" as="geometry" />
        </mxCell>
        <mxCell id="hT53Xvhp56gyMF1w9cKe-5" value="Shared" style="text;strokeColor=none;fillColor=none;html=1;align=center;verticalAlign=middle;whiteSpace=wrap;rounded=0;hachureGap=4;" vertex="1" parent="1">
          <mxGeometry x="600" y="330" width="100" height="50" as="geometry" />
        </mxCell>
      </root>
    </mxGraphModel>
  </diagram>
</mxfile>
